<svg id="Layer_1" data-name="Layer 1" xmlns="http://www.w3.org/2000/svg" viewBox="0 0 1025.69 867.08"><defs><style>.cls-1,.cls-4{fill:#253c8d;}.cls-1{stroke:#253c8d;}.cls-1,.cls-2{stroke-miterlimit:10;stroke-width:2px;}.cls-2{fill:#bc1d33;stroke:#bc1d33;}.cls-3{fill:#fff;}</style></defs><path class="cls-1" d="M0,179.9q11.22,4,22.43,8c16.08,5.74,32.12,11.63,48.28,17.13,14.61,5,29.37,9.49,44.07,14.19a26.2,26.2,0,0,0,3.41.74c4.34.76,7.55,2.37,7,7.72-.14,1.55.86,3.2,1.73,6.14,3.73-6.39,6.78-11.44,9.66-16.58,13.72-24.48,30.21-47,48.56-68.18a433.38,433.38,0,0,1,47.21-46.57A396.18,396.18,0,0,1,312.77,49a528.51,528.51,0,0,1,50.05-22.15C378.15,21.1,394.09,16.78,410,13c16.12-3.85,32.57-6.38,48.89-9.34,3.09-.56,6.36-.12,9.46-.66C488.64-.57,509.1-.23,529.49.41c12.36.39,24.66,2.62,37,4.21,6.92.89,13.84,1.9,20.67,3.28,12.83,2.58,25.81,4.74,38.33,8.42,16.21,4.77,32.24,10.32,48,16.47,31.72,12.41,61.19,29.1,88.83,49,32.62,23.49,62,50.55,86.23,82.62,13.11,17.32,24.63,35.85,36.68,54,2.67,4,5,6.3,10.45,4.54,16.09-5.21,32.43-9.63,48.53-14.83,15.3-4.94,30.45-10.38,45.6-15.78,10.15-3.62,20.19-7.57,30.28-11.35.89-.34,1.83-.54,3.41-1,.09,2.16.24,3.89.24,5.63q0,154.5-.13,309c0,3.91-1.83,7.86-3.07,11.7-6.3,19.55-12.71,39.06-19,58.59-5.43,16.73-10.72,33.51-16.21,50.22-3.72,11.34-7.76,22.57-11.51,33.91s-7.25,22.64-10.86,34l-1.66-.12V650.7c0-33.83-.06-67.65,0-101.47q.06-25.25.58-50.48c.08-4.55-.78-7.57-6.1-8.4-3.7-.57-7.18-2.52-10.78-3.77-4.19-1.46-6.49-.1-6.95,4.25-2.6,24.7-8.49,48.72-16,72.31A431.91,431.91,0,0,1,813.75,739.47c-30.18,29.68-63.74,55-101.56,74.22a569.69,569.69,0,0,1-54.49,24.38c-15.11,5.77-30.94,9.91-46.72,13.64-16.59,3.92-33.46,6.74-50.3,9.56-6.69,1.11-13.77.13-20.38,1.49-16.52,3.4-33.2,2.28-49.67,1.47-17.79-.87-35.51-4-53.14-6.9a370.53,370.53,0,0,1-40.85-8.76c-15.6-4.42-31-9.67-46.14-15.55a407.89,407.89,0,0,1-97.2-54.31,432.58,432.58,0,0,1-79.82-77.2,446.33,446.33,0,0,1-40.57-60.4,419,419,0,0,1-31.75-72.43A377.44,377.44,0,0,1,86,507.94c-.82-5.24-1.39-10.54-2.64-15.67-.49-2-3.12-5.36-3.78-5.14-3.36,1.11-8.15,0-9.56,4.86a11.85,11.85,0,0,0-.23,3q-.54,42.69-1.07,85.4-.48,41.22-.87,82.44a10.91,10.91,0,0,1-1.48,5.76c-2.54-6.26-5.12-12.51-7.62-18.78C51.46,631.6,44.16,613.43,37,595.19c-5.45-13.9-10.73-27.87-16-41.85-5.66-15-11.17-30.13-16.9-45.14-1-2.58-2.74-4.88-4.13-7.3ZM834.71,313.58c.26,10.16.1,39.41.07,49.58,0,1.75-.17,3.5-.27,5.5-4.43,0-8.27.2-12.07-.06s-6.1,1.31-8.1,4.5c-4.19,6.67-7.38,13.27-6.69,21.68,1,11.73.86,23.55,1.1,35.34.12,6.41,0,12.83,0,20.11-4.16-1-7.29-1.93-10.48-2.52-14.09-2.62-28.14-5.42-42.3-7.54a25.38,25.38,0,0,0-12.35,1.61c-10.42,4.06-20.59,8.77-30.81,13.34-3.11,1.39-6.05,3.14-9.06,4.73l.42,2c11.8,2.61,23.89.92,35.83,1.22s24,.66,36-.11,23.62-2.89,35.58-4.44c-2.06,1.9-3.86,3.84-5.92,5.43q-31.35,24-62.84,47.81a6,6,0,0,1-4.66.69c-5.84-1.64-11.5-4-17.37-5.43A44.17,44.17,0,0,0,693,508.71a37.81,37.81,0,0,0-18.88,16.62c-5.59,9.5-5,19.95-5.11,29.93-.53,47.66-.42,95.33,0,143,.06,7.41-2.43,12.73-7.18,17.65-1.27,1.31-2.66,2.53-3.86,3.91q-22,25-44,50.06c-5.45,6.24-10.71,12.63-16.14,18.88-3.16,3.64-6.48,7.14-10.69,11.75v-326a34.58,34.58,0,0,0-.07-5c-.18-1.2-.71-3.1-1.44-3.29a4.67,4.67,0,0,0-3.94,1c-2,2.14-3.54,4.75-5.33,7.11q-21.31,28.1-42.66,56.17c-4.65,6.12-9.35,12.2-14.09,18.38-5-5.91-9.74-11.23-14.23-16.74-17-20.92-33.95-41.94-51.08-62.78-1.62-2-4.43-3-6.7-4.41-.62,2.39-1.78,4.78-1.78,7.16q-.14,160.76-.08,321.5v6.56c-1.79-1.58-2.57-2.19-3.26-2.89q-42.93-42.87-85.92-85.67a14,14,0,0,1-4.46-10.93q.24-62.76.05-125.5-.06-18.18-1.07-36.35a31.31,31.31,0,0,0-11.47-22.91c-17.26-14.28-35.94-11.87-55-4a8.57,8.57,0,0,1-6.72-.42c-3.8-2.29-7-5.49-10.58-8.2-19.3-14.77-38.62-29.5-59.14-45.16,2.62.17,3.78.17,4.91.34,10.39,1.56,20.76,4.17,31.19,4.52,21.48.71,43,.22,64.5.19a12.06,12.06,0,0,0,4.38-.56c1.09-.43,1.88-1.62,2.81-2.48-.85-.83-1.56-2-2.58-2.45-3.31-1.47-6.83-2.5-10.11-4-12.42-5.84-24.75-11.89-37.18-17.72-7-3.29-14.36-6-19.35-12.47-3.94-5.08-6.09-4.77-9.09.83-7.61,14.26-21,22.38-34.22,30-6.08,3.51-13.67,4.64-20.73,6.16-18.82,4.05-37.22,5.12-52.76-9.54a4,4,0,0,0-3.56-.77c-.86.4-1.51,2.09-1.56,3.25-.2,4-.64,8.09,0,12,1,6-2.44,7.77-6.94,9.1-2.83.84-5.72,1.51-8.55,2.39-6.84,2.15-7.75,3.9-6.32,11.27,1.26,6.48,2.19,13,3.64,19.45,3.63,16.05,6.66,32.3,11.46,48a345.75,345.75,0,0,0,17,44.12c7.74,16.72,16,33.36,25.77,49,9.88,15.82,21.58,30.56,33,45.4,16.83,21.93,36.85,40.79,58.26,58.15a390.94,390.94,0,0,0,69.31,45.21c13,6.62,26.2,13.22,39.86,18.33,24.1,9,48.6,17,74.25,20.59,17.65,2.45,35.29,5.47,53,6.55,16.05,1,32.26.17,48.34-.84a402.5,402.5,0,0,0,44.78-5c17-3,34-6.45,50.48-11.61a394.51,394.51,0,0,0,51.54-20.25c17.68-8.41,35.13-17.72,51.38-28.57,17.43-11.65,33.9-24.92,49.76-38.68a338.76,338.76,0,0,0,37.25-37.37,437.06,437.06,0,0,0,36.13-49.19c11-17.63,20.26-36.44,29.41-55.16,5-10.33,8.71-21.4,12.3-32.36,4.44-13.62,8.77-27.34,12-41.28,2.9-12.5,3.91-25.42,6.43-38,1-5.2-.94-6.83-5.22-8-14.49-3.9-29-7.84-43.38-12-1.74-.5-4.1-2.24-4.39-3.75a73.33,73.33,0,0,1-1.15-13.82q-.1-100,0-200c0-5.4,1.25-10.79,1.69-16.2.17-2.11.48-4.76-.55-6.33-8.44-12.87-16.94-25.72-25.87-38.26-17.32-24.29-37.91-45.67-60.4-65.15-20.29-17.58-42-33.33-65.62-46.17-14.91-8.12-30.06-16-45.66-22.62-13.28-5.65-27.3-9.64-41.14-13.89-11.5-3.54-23.07-7.08-34.85-9.4-12.77-2.5-25.8-3.68-38.74-5.25-5.09-.62-10.23-.78-15.35-1.11-9.75-.64-19.49-1.73-29.23-1.74-8.91,0-17.81,1.47-26.73,1.75-19.57.59-38.7,4-57.82,7.87a384.22,384.22,0,0,0-63.79,19c-28.53,11.2-55.79,25.08-80.69,43a614.66,614.66,0,0,0-48.21,38.29c-21.21,18.73-39.51,40.28-55.77,63.46C168.76,203.91,162.4,214,156,224c-2.71,4.26-1.22,8.09,3.12,8A95.16,95.16,0,0,1,190,236.26c4.81,1.46,6.63-1.14,8.3-4.63,1.79-3.72,3.48-7.49,5.4-11.14C215.07,198.79,232,182.4,252.89,170c18.14-10.79,37.76-18,58.34-22.66,3.7-.83,7.44-1.46,10.58-2.06-7.55,8.43-15.52,16.61-22.66,25.47-10.46,13-16.65,28.29-20.07,44.38-2,9.62-1.7,19.75-2.27,29.66-.68,12,2.66,11.7,12.26,13.17,18.57,2.86,37.29,4.81,55.93,7.22,6.92.89,7.24.73,7.24-6.42q0-49.5,0-99v-6.14c1.67,1.54,2.68,2.34,3.54,3.29Q377.38,181,399,205c7.54,8.36,15.19,16.62,22.84,24.88q25,27,50.05,53.88c1.21,1.3,3.45,1.63,5.21,2.41.71-1.85,1.95-3.68,2-5.56.33-6.53.18-6.56,6.85-6.55,25.66,0,51.33,0,77,.08,6.23,0,11-1.79,14.69-7.33,3.82-5.77,8.57-10.94,13-16.33,13-15.92,26-31.77,38.89-47.74,10.7-13.27,21.22-26.7,31.88-40,2.11-2.63,4.45-5.08,7.44-8.47v47.58c0,18.83.05,37.67,0,56.5,0,3.7,1.26,5.57,5.18,5.47,10.7-.3,21.43-1.07,32.08-.51,10.19.52,18.85,5.54,26.41,12.35a22.43,22.43,0,0,0,3.39,2.11c.8-1.35,2.15-2.65,2.28-4.06a77.36,77.36,0,0,0,.09-11c-.22-4.24,2.07-6,5.81-6.52,1.65-.22,3.63.47,4.94-.22,2.59-1.38,6.39-3.06,6.93-5.28,2.64-11,1.25-22.22-1.36-32.85-2.41-9.78-6.84-19.21-11.41-28.27-5.57-11-13.7-20.28-23.24-28.19-6.6-5.48-13.29-10.86-20.07-16.39,8.15,2,16.5,3.33,24.36,6.09,11.81,4.15,23.5,8.82,34.84,14.11,20.15,9.41,37.3,22.88,49.75,41.47,6.12,9.14,10.92,19.17,16.1,28.92,1.9,3.59,3.89,5.55,8.23,3.81,2.17-.88,4.7-.89,7.38-1.35a30.15,30.15,0,0,1,.27,3.5c-.64,13.74-1.25,27.48-2,41.2Zm108.55-21.84a34.23,34.23,0,0,1-1.42-5Q939,258,936.22,229.2c-.48-5-2.37-6.3-7.23-4.85-16,4.77-32,9.74-48.16,14.07-4.78,1.28-6.12,3.56-6.07,8,.13,10.66,0,21.33,0,32q0,85.48,0,171c0,3.87,1.93,6.07,5.16,7,10,2.9,20.1,5.68,30.24,8.15,5.41,1.32,6.24.48,6.23-5q-.11-45.48-.3-91c0-9.16,0-18.31,0-27.46a33,33,0,0,1,1.28,7.91c2.6,27.62,5.09,55.26,7.9,82.86,1.2,11.73,2.92,23.42,4.78,35.07a7.43,7.43,0,0,0,4.09,4.8A213.84,213.84,0,0,0,955,478.28c1.38.35,3.8-1,4.84-2.32s1.06-3.45,1.21-5.26c1.13-13.42,2.13-26.86,3.26-40.28.9-10.76,1.89-21.51,2.9-32.26q2.35-25.29,4.81-50.58c.92-9.27,2-18.52,3.1-28.61a15.62,15.62,0,0,1,.42,2.26c-.51,23.95-1.09,47.9-1.55,71.85-.38,20.14-.77,40.28-.89,60.43-.23,38.65-.27,77.31-.42,116,0,2.14-.52,4.28-.59,6.44-.32,10.14-.64,20.29-.73,30.44,0,1.08,1.45,2.17,2.23,3.25,1-1,2.28-1.83,2.84-3,.84-1.77,1.09-3.82,1.71-5.71q6.95-21.28,13.92-42.56c4.67-14.33,9.24-28.69,13.93-43,3.57-10.89,6.38-21.65,6.33-33.47-.39-91.48-.21-183-.22-274.44,0-1.83,0-3.66,0-5.49,0-4-1.35-5.46-5.53-4-15.6,5.64-31.23,11.21-46.94,16.51-5.27,1.78-7.51,4.87-7,10.34.17,1.95-.4,4-.67,5.94-1.4,10.19-2.91,20.37-4.17,30.58-1.14,9.22-2,18.48-3,27.72C944.65,289.61,944.15,290.13,943.26,291.74ZM11.91,348.43q0,71.49,0,143c0,2.48-.09,5.13.71,7.4,4.92,13.93,10,27.81,15.19,41.62Q39.91,572.32,52.37,604c.54,1.39,2.29,2.31,3.47,3.45.66-1.37,1.8-2.71,1.88-4.11q.56-9.72.6-19.47.27-109.48.48-219v-1c.07-5.33,1-5.94,6.21-5.35,4.38.5,3.66,3.67,3.63,6.36Q68,417.89,67.3,470.85c-.07,6.31,2,7.61,8,5.73,10.58-3.34,21.24-6.4,31.79-9.83,3.3-1.07,7.07-1.79,7.17-6.9.58-28,2-55.89,2-83.83-.11-42.1-1.25-84.19-1.94-126.29-.08-5,.33-10-.31-15-.27-2.09-2.31-5-4.19-5.65-12.1-4-24.38-7.54-36.6-11.24-4.55-1.39-5.71-.76-5.79,4.14-.13,8,0,16,.12,24q.56,41,1.2,81.92c.06,4-1.77,5.15-5.5,5.17-4.61,0-4.4-2.93-4.41-6.06q-.21-48.24-.48-96.47c0-4.5-.34-9-.6-13.48-.18-3.07-1.36-5.27-4.72-6.2s-6.8-2.56-10.22-3.78C34,204,25.25,201,16.52,197.88c-3.09-1.11-4.43,0-4.55,3.06-.07,1.67-.06,3.33-.06,5Q11.9,277.19,11.91,348.43Zm117.1-1.3c0,22-.14,44,.08,66a72.32,72.32,0,0,0,2,17.76c3,11,12.12,20.43,25.27,21.25,21.72,1.35,41.16-4.8,58.27-17.71,12.55-9.48,20.52-21.94,20.46-38.53-.13-32-.21-64,0-95.94.09-11-3.08-20.89-10-29-18.24-21.33-42.14-29.71-69.66-28.05-11,.67-19.08,6.94-22.8,17.41a57.89,57.89,0,0,0-3.47,17.9C128.77,301.15,129,324.14,129,347.13ZM248.8,349h.36c0,17-.28,34,.1,51,.25,10.79,5.21,19.93,15.38,23.68a65.9,65.9,0,0,0,25.76,4.06,152.8,152.8,0,0,0,34.12-6.18c13.48-4,25.08-12,30.22-25.51,3-8,3.51-17.21,3.81-25.92.43-11.95-.36-23.95-.69-35.93-.48-17.13-1-34.25-1.55-51.37,0-.83.17-1.89-.25-2.44-1-1.31-2.21-3.24-3.55-3.43q-19.47-2.82-39-5.07c-6-.69-6.58,0-6.49,6.2.29,19.48.79,38.95,1,58.43.17,16.16.1,32.33,0,48.49a36.45,36.45,0,0,1-1.27,10.86c-.57,1.76-3.35,2.8-5.13,4.17-1.09-1.52-2.67-2.91-3.13-4.61-.56-2-.15-4.3-.18-6.46q-.54-54.71-1.16-109.41a24.36,24.36,0,0,0-1.32-7.31,4.94,4.94,0,0,0-2.92-2.9c-4.85-1.1-9.79-1.8-14.7-2.63-8.33-1.39-16.69-2.64-25-4.21-4.42-.84-6.12.56-5.87,5.15.58,10.62,1.28,21.24,1.43,31.87C249,316,248.8,332.47,248.8,349Zm483.39-1.76h-.06q0-11.74,0-23.48c0-7.83.17-15.66,0-23.48s-3.71-13.85-9.58-18.91c-8.84-7.6-19.8-9-30.41-9a118.76,118.76,0,0,0-36.63,6.22c-20.72,6.77-32.33,20.92-32.24,42.45.08,20.44,1.08,40.87,1.23,61.31.08,9.72,4.52,16.85,11.43,22.8,9.72,8.37,21.33,12.23,33.82,14.62,14.24,2.72,28.21,3.7,42.31-.47,11.75-3.48,19.84-13.25,20.06-25.59C732.4,378.19,732.19,362.7,732.19,347.21Zm-314,67c11.92,1,24.32-1.26,36.37-5.36,9.64-3.27,19.19-7.62,21.77-18.57,1.65-7,1.19-14.52,1.26-21.81.1-11.1-5-19.5-14.42-25.13a121.64,121.64,0,0,0-12.44-6.27C441.47,333,432.15,329,422.9,325c-5.48-2.42-7.14-7-7-12.65.09-3.88.77-6.89,5.72-6.86,4.64,0,6.13,2.55,6.25,6.61.07,2.33.22,4.66.15,7-.13,4,1.74,5.72,5.7,5.82,11,.28,22,.77,32.93,1.05,7.3.19,8.05-.63,8.1-7.89a25.28,25.28,0,0,0-.08-4c-1.41-9.33-2.79-19-12.61-23.45-7.81-3.53-16-7.1-24.32-8.45-14.52-2.36-29.1-4-44.09-.86-14.43,3-22.16,8.56-24.31,23.23-2.41,16.47,2.13,33.4,18.11,42,11.7,6.28,23.33,12.7,35.17,18.72,8.63,4.39,8.73,10.85,7.64,18.62-.55,3.94-5.11,6.55-9.1,6.14-5-.52-4.26-4.32-4.35-7.55s.1-6.33.11-9.49c0-8.87,0-8.86-8.57-8.27-1.33.09-2.67,0-4,.05-8.67.12-17.33.18-26,.4-3.67.09-7.64,1-7.94,5.25-.48,6.61-.76,13.42.28,19.92,1.47,9.18,6.64,15.77,15.75,19.62C396.47,414.12,406.74,414.57,418.16,414.22Zm330.56-67.28v20.48q0,27.24,0,54.46c0,3-.23,6.32,3.78,7.13,5.2,1.06,10.43,1.95,15.65,2.87,6.53,1.15,13.14,1.92,19.57,3.45,9.6,2.29,10,2.13,10.07-7.56,0-1,0-2,0-3-.33-20.14-.59-40.28-1-60.41-.1-4.32,1.4-6,5.78-5.81,5,.26,10-.07,15,.08,4.58.13,6.85-1.78,6.73-6.48-.1-4.33-.07-8.66,0-13,.06-4.15-1.88-6.16-6.05-6.11-4.83,0-9.66,0-14.49,0-6.62,0-6.86-.25-6.88-6.64,0-10.33.12-20.66-.12-31-.09-3.51,1.16-4.51,4.48-4.88a152,152,0,0,0,19.6-3.24c2.64-.65,6.59-3,6.85-5,1.16-8.53,1.22-17.21,1.55-25.84.14-3.63-1.91-5.27-5.41-4.62-4.72.86-9.38,2-14.08,3q-17.05,3.42-34.13,6.75c-7.16,1.39-14.31,2.79-21.5,4-4.3.75-5.44,3.2-5.41,7.37C748.8,297.64,748.72,322.29,748.72,346.94ZM531.5,284.07v.46c-6.5,0-13,0-19.49,0-5.16,0-10.34-.17-15.49.15-6.71.42-8.08,2.37-7.18,8.92a54.13,54.13,0,0,1,.44,7q0,46.47,0,92.95a54.81,54.81,0,0,1-.53,7.46c-1,7.15-.11,8.25,7.07,8.3,9.49.07,19,0,28.48.21,14.78.3,29.56.94,44.34,1,1.85,0,5.15-2.76,5.29-4.45a120.57,120.57,0,0,0-.2-18.42c-.23-3.37-2.24-5.27-6-5.22-7.5.09-15-.12-22.49-.14-3.6,0-5.66-1.41-5.58-5.33.1-4.83.12-9.66,0-14.49-.08-3.46,1.51-4.85,4.84-4.68,5.81.29,11.64.39,17.44.82,4,.29,6-1.09,5.93-5.26-.09-4.83-.14-9.66,0-14.49.15-4.37-1.9-5.93-6.07-5.8-5.49.16-11-.17-16.48.09-4.44.21-6-1.64-5.72-5.89a54.69,54.69,0,0,0,0-8.49c-.33-4,1.1-5.71,5.35-5.55,6.31.22,12.66-.3,19-.07,4.71.17,6.74-1.55,6.57-6.33-.2-5.49-.25-11,0-16.48.22-4.87-1.91-6.39-6.56-6.29C553.48,284.21,542.49,284.07,531.5,284.07Z" transform="translate(1 1)"/><path class="cls-2" d="M838.7,282.77c.78-13.72,1.39-27.46,2-41.2a30.15,30.15,0,0,0-.27-3.5c-2.68.46-5.21.47-7.38,1.35-4.34,1.74-6.33-.22-8.23-3.81-5.18-9.75-10-19.78-16.1-28.92-12.45-18.59-29.6-32.06-49.75-41.47-11.34-5.29-23-10-34.84-14.11C716.3,148.35,708,147,699.8,145c6.78,5.53,13.47,10.91,20.07,16.39,9.54,7.91,17.67,17.16,23.24,28.19,4.57,9.06,9,18.49,11.41,28.27,2.61,10.63,4,21.89,1.36,32.85-.54,2.22-4.34,3.9-6.93,5.28-1.31.69-3.29,0-4.94.22-3.74.49-6,2.28-5.81,6.52a77.36,77.36,0,0,1-.09,11c-.13,1.41-1.48,2.71-2.28,4.06a22.43,22.43,0,0,1-3.39-2.11c-7.56-6.81-16.22-11.83-26.41-12.35-10.65-.56-21.38.21-32.08.51-3.92.1-5.19-1.77-5.18-5.47.09-18.83,0-37.67,0-56.5V154.28c-3,3.39-5.33,5.84-7.44,8.47-10.66,13.31-21.18,26.74-31.88,40-12.89,16-25.93,31.82-38.89,47.74-4.39,5.39-9.14,10.56-13,16.33-3.67,5.54-8.46,7.36-14.69,7.33-25.67-.1-51.34-.07-77-.08-6.67,0-6.52,0-6.85,6.55-.09,1.88-1.33,3.71-2,5.56-1.76-.78-4-1.11-5.21-2.41Q446.69,257,421.8,229.9c-7.65-8.26-15.3-16.52-22.84-24.88q-21.65-24-43.18-48.11c-.86-.95-1.87-1.75-3.54-3.29v6.14q0,49.5,0,99c0,7.15-.32,7.31-7.24,6.42-18.64-2.41-37.36-4.36-55.93-7.22-9.6-1.47-12.94-1.2-12.26-13.17.57-9.91.23-20,2.27-29.66,3.42-16.09,9.61-31.4,20.07-44.38,7.14-8.86,15.11-17,22.66-25.47-3.14.6-6.88,1.23-10.58,2.06C290.65,152,271,159.21,252.89,170c-20.85,12.4-37.82,28.79-49.23,50.49-1.92,3.65-3.61,7.42-5.4,11.14-1.67,3.49-3.49,6.09-8.3,4.63A95.16,95.16,0,0,0,159.15,232c-4.34.13-5.83-3.7-3.12-8,6.37-10,12.73-20.11,19.56-29.84,16.26-23.18,34.56-44.73,55.77-63.46a614.66,614.66,0,0,1,48.21-38.29c24.9-17.9,52.16-31.78,80.69-43a384.22,384.22,0,0,1,63.79-19c19.12-3.88,38.25-7.28,57.82-7.87,8.92-.28,17.82-1.76,26.73-1.75,9.74,0,19.48,1.1,29.23,1.74,5.12.33,10.26.49,15.35,1.11,12.94,1.57,26,2.75,38.74,5.25,11.78,2.32,23.35,5.86,34.85,9.4,13.84,4.25,27.86,8.24,41.14,13.89,15.6,6.64,30.75,14.5,45.66,22.62,23.62,12.84,45.33,28.59,65.62,46.17,22.49,19.48,43.08,40.86,60.4,65.15,8.93,12.54,17.43,25.39,25.87,38.26,1,1.57.72,4.22.55,6.33-.44,5.41-1.68,10.8-1.69,16.2q-.18,100,0,200a73.33,73.33,0,0,0,1.15,13.82c.29,1.51,2.65,3.25,4.39,3.75,14.41,4.16,28.89,8.1,43.38,12,4.28,1.15,6.26,2.78,5.22,8-2.52,12.61-3.53,25.53-6.43,38-3.23,13.94-7.56,27.66-12,41.28-3.59,11-7.25,22-12.3,32.36-9.15,18.72-18.38,37.53-29.41,55.16a437.06,437.06,0,0,1-36.13,49.19,338.76,338.76,0,0,1-37.25,37.37c-15.86,13.76-32.33,27-49.76,38.68-16.25,10.85-33.7,20.16-51.38,28.57a394.51,394.51,0,0,1-51.54,20.25C615.8,830.53,598.75,834,581.75,837A402.5,402.5,0,0,1,537,842c-16.08,1-32.29,1.8-48.34.84-17.74-1.08-35.38-4.1-53-6.55-25.65-3.57-50.15-11.57-74.25-20.59-13.66-5.11-26.82-11.71-39.86-18.33a390.94,390.94,0,0,1-69.31-45.21C230.77,734.82,210.75,716,193.92,694c-11.39-14.84-23.09-29.58-33-45.4-9.75-15.61-18-32.25-25.77-49a345.75,345.75,0,0,1-17-44.12c-4.8-15.7-7.83-31.95-11.46-48-1.45-6.43-2.38-13-3.64-19.45-1.43-7.37-.52-9.12,6.32-11.27,2.83-.88,5.72-1.55,8.55-2.39,4.5-1.33,8-3.14,6.94-9.1-.67-3.88-.23-8,0-12,.05-1.16.7-2.85,1.56-3.25a4,4,0,0,1,3.56.77c15.54,14.66,33.94,13.59,52.76,9.54,7.06-1.52,14.65-2.65,20.73-6.16,13.27-7.66,26.61-15.78,34.22-30,3-5.6,5.15-5.91,9.09-.83,5,6.44,12.32,9.18,19.35,12.47,12.43,5.83,24.76,11.88,37.18,17.72,3.28,1.54,6.8,2.57,10.11,4,1,.46,1.73,1.62,2.58,2.45-.93.86-1.72,2.05-2.81,2.48a12.06,12.06,0,0,1-4.38.56c-21.5,0-43,.52-64.5-.19-10.43-.35-20.8-3-31.19-4.52-1.13-.17-2.29-.17-4.91-.34,20.52,15.66,39.84,30.39,59.14,45.16,3.55,2.71,6.78,5.91,10.58,8.2a8.57,8.57,0,0,0,6.72.42c19.08-7.84,37.76-10.25,55,4a31.31,31.31,0,0,1,11.47,22.91q1,18.15,1.07,36.35.18,62.75-.05,125.5a14,14,0,0,0,4.46,10.93q43.11,42.69,85.92,85.67c.69.7,1.47,1.31,3.26,2.89v-6.56q0-160.74.08-321.5c0-2.38,1.16-4.77,1.78-7.16,2.27,1.45,5.08,2.43,6.7,4.41,17.13,20.84,34,41.86,51.08,62.78,4.49,5.51,9.2,10.83,14.23,16.74,4.74-6.18,9.44-12.26,14.09-18.38q21.35-28.07,42.66-56.17c1.79-2.36,3.31-5,5.33-7.11a4.67,4.67,0,0,1,3.94-1c.73.19,1.26,2.09,1.44,3.29a34.58,34.58,0,0,1,.07,5v326c4.21-4.61,7.53-8.11,10.69-11.75,5.43-6.25,10.69-12.64,16.14-18.88q21.91-25.08,44-50.06c1.2-1.38,2.59-2.6,3.86-3.91,4.75-4.92,7.24-10.24,7.18-17.65-.4-47.66-.51-95.33,0-143,.11-10-.48-20.43,5.11-29.93A37.81,37.81,0,0,1,693,508.71,44.17,44.17,0,0,1,720.8,507c5.87,1.46,11.53,3.79,17.37,5.43a6,6,0,0,0,4.66-.69Q774.35,488,805.67,464c2.06-1.59,3.86-3.53,5.92-5.43-12,1.55-23.73,3.68-35.58,4.44s-24,.4-36,.11-24,1.39-35.83-1.22l-.42-2c3-1.59,6-3.34,9.06-4.73,10.22-4.57,20.39-9.28,30.81-13.34A25.38,25.38,0,0,1,756,440.17c14.16,2.12,28.21,4.92,42.3,7.54,3.19.59,6.32,1.51,10.48,2.52,0-7.28.1-13.7,0-20.11-.24-11.79-.14-23.61-1.1-35.34-.69-8.41,2.5-15,6.69-21.68,2-3.19,4.29-4.75,8.1-4.5s7.64.06,12.07.06c.1-2,.27-3.75.27-5.5,0-10.17.19-39.4-.07-49.56Z" transform="translate(1 1)"/><path class="cls-3" d="M943.26,291.74c.89-1.61,1.39-2.13,1.45-2.69,1-9.24,1.89-18.5,3-27.72,1.26-10.21,2.77-20.39,4.17-30.58.27-2,.84-4,.67-5.94-.48-5.47,1.76-8.56,7-10.34,15.71-5.3,31.34-10.87,46.94-16.51,4.18-1.5,5.57,0,5.53,4,0,1.83,0,3.66,0,5.49,0,91.48-.17,183,.22,274.44.05,11.82-2.76,22.58-6.33,33.47-4.69,14.32-9.26,28.68-13.93,43s-9.29,28.37-13.92,42.56c-.62,1.89-.87,3.94-1.71,5.71-.56,1.18-1.86,2-2.84,3-.78-1.08-2.24-2.17-2.23-3.25.09-10.15.41-20.3.73-30.44.07-2.16.58-4.3.59-6.44.15-38.66.19-77.32.42-116,.12-20.15.51-40.29.89-60.43.46-23.95,1-47.9,1.55-71.85a15.62,15.62,0,0,0-.42-2.26c-1.1,10.09-2.18,19.34-3.1,28.61q-2.49,25.29-4.81,50.58c-1,10.75-2,21.5-2.9,32.26-1.13,13.42-2.13,26.86-3.26,40.28-.15,1.81-.2,4-1.21,5.26s-3.46,2.67-4.84,2.32a213.84,213.84,0,0,1-20.87-6.55,7.43,7.43,0,0,1-4.09-4.8c-1.86-11.65-3.58-23.34-4.78-35.07-2.81-27.6-5.3-55.24-7.9-82.86a33,33,0,0,0-1.28-7.91c0,9.15,0,18.3,0,27.46q.13,45.48.3,91c0,5.48-.82,6.32-6.23,5-10.14-2.47-20.21-5.25-30.24-8.15-3.23-.93-5.16-3.13-5.16-7q.11-85.49,0-171c0-10.66.13-21.33,0-32,0-4.44,1.29-6.72,6.07-8C897,234.09,913,229.12,929,224.35c4.86-1.45,6.75-.18,7.23,4.85Q939,258,941.84,286.76A34.23,34.23,0,0,0,943.26,291.74Z" transform="translate(1 1)"/><path class="cls-3" d="M11.9,348.43q0-71.25,0-142.49c0-1.67,0-3.33.06-5,.12-3.06,1.46-4.17,4.55-3.06C25.25,201,34,204,42.77,207.11c3.42,1.22,6.73,2.82,10.22,3.78s4.54,3.13,4.72,6.2c.26,4.49.57,9,.6,13.48q.3,48.24.48,96.47c0,3.13-.2,6.08,4.41,6.06,3.73,0,5.56-1.19,5.5-5.17Q68,287,67.5,246c-.11-8-.25-16-.12-24,.08-4.9,1.24-5.53,5.79-4.14,12.22,3.7,24.5,7.2,36.6,11.24,1.88.63,3.92,3.56,4.19,5.65.64,4.92.23,10,.31,15,.69,42.1,1.83,84.19,1.94,126.29.07,27.94-1.4,55.88-2,83.83-.1,5.11-3.87,5.83-7.17,6.9-10.55,3.43-21.21,6.49-31.79,9.83-6,1.88-8,.58-8-5.73q.63-53,1.34-105.91c0-2.69.75-5.86-3.63-6.36-5.26-.59-6.14,0-6.21,5.35v1q-.22,109.49-.48,219,0,9.74-.6,19.47c-.08,1.4-1.22,2.74-1.88,4.11-1.18-1.14-2.93-2.06-3.47-3.45q-12.43-31.74-24.54-63.59c-5.24-13.81-10.27-27.69-15.19-41.62-.8-2.27-.71-4.92-.71-7.4Q11.89,419.93,11.9,348.43Z" transform="translate(1 1)"/><path class="cls-3" d="M129,347.13c0-23-.24-46,.15-69a57.89,57.89,0,0,1,3.47-17.9c3.72-10.47,11.76-16.74,22.8-17.41,27.52-1.66,51.42,6.72,69.66,28.05,6.94,8.12,10.11,18,10,29-.25,32-.17,64,0,95.94.06,16.59-7.91,29.05-20.46,38.53-17.11,12.91-36.55,19.06-58.27,17.71-13.15-.82-22.32-10.24-25.27-21.25a72.32,72.32,0,0,1-2-17.76C128.87,391.1,129,369.12,129,347.13Zm48,.5h0c0,22.31-.06,44.62.1,66.93,0,1.78,1.5,3.55,2.3,5.32a72.5,72.5,0,0,0,6.15-4.36c.57-.49.41-1.9.48-2.89.8-10.42,2.29-20.85,2.24-31.28-.19-33.24,2.18-66.56-2.2-99.73-.48-3.63-1.8-6.22-5.67-6.23-4.62,0-3.35,3.8-3.37,6.32C177,303.68,177,325.66,177,347.63Z" transform="translate(1 1)"/><path class="cls-3" d="M248.8,349c0-16.5.17-33-.07-49.49-.15-10.63-.85-21.25-1.43-31.87-.25-4.59,1.45-6,5.87-5.15,8.3,1.57,16.66,2.82,25,4.21,4.91.83,9.85,1.53,14.7,2.63a4.94,4.94,0,0,1,2.92,2.9,24.36,24.36,0,0,1,1.32,7.31q.67,54.71,1.16,109.41c0,2.16-.38,4.44.18,6.46.46,1.7,2,3.09,3.13,4.61,1.78-1.37,4.56-2.41,5.13-4.17A36.45,36.45,0,0,0,308,385c.12-16.16.19-32.33,0-48.49-.21-19.48-.71-39-1-58.43-.09-6.23.45-6.89,6.49-6.2q19.56,2.22,39,5.07c1.34.19,2.54,2.12,3.55,3.43.42.55.22,1.61.25,2.44.52,17.12,1.07,34.24,1.55,51.37.33,12,1.12,24,.69,35.93-.3,8.71-.78,17.93-3.81,25.92-5.14,13.54-16.74,21.55-30.22,25.51a152.8,152.8,0,0,1-34.12,6.18,65.9,65.9,0,0,1-25.76-4.06c-10.17-3.75-15.13-12.89-15.38-23.68-.38-17-.1-34-.1-51Z" transform="translate(1 1)"/><path class="cls-3" d="M732.19,347.21c0,15.49.21,31-.06,46.47-.22,12.34-8.31,22.11-20.06,25.59-14.1,4.17-28.07,3.19-42.31.47-12.49-2.39-24.1-6.25-33.82-14.62-6.91-5.95-11.35-13.08-11.43-22.8-.15-20.44-1.15-40.87-1.23-61.31-.09-21.53,11.52-35.68,32.24-42.45a118.76,118.76,0,0,1,36.63-6.22c10.61,0,21.57,1.4,30.41,9,5.87,5.06,9.43,11.14,9.58,18.91s0,15.65,0,23.48,0,15.65,0,23.48Zm-60.32-.1c0,9-.24,18,.09,27,.21,5.78,1.22,11.54,2,17.3.46,3.55,3.24,4.38,5.9,3.52,1.4-.46,2.95-2.9,3-4.52.58-9.79,1-19.61,1-29.41-.09-18.63-.45-37.26-1-55.88-.06-2-1.69-5.53-2.95-5.71a5.24,5.24,0,0,0-6.21,4.95c-.59,5.27-1.6,10.52-1.78,15.8C671.66,329.12,671.87,338.12,671.87,347.11Z" transform="translate(1 1)"/><path class="cls-3" d="M418.16,414.22c-11.42.35-21.69-.1-31.72-4.34-9.11-3.85-14.28-10.44-15.75-19.62-1-6.5-.76-13.31-.28-19.92.3-4.28,4.27-5.16,7.94-5.25,8.66-.22,17.32-.28,26-.4,1.33,0,2.67,0,4-.05,8.59-.59,8.6-.6,8.57,8.27,0,3.16-.2,6.33-.11,9.49s-.63,7,4.35,7.55c4,.41,8.55-2.2,9.1-6.14,1.09-7.77,1-14.23-7.64-18.62-11.84-6-23.47-12.44-35.17-18.72-16-8.57-20.52-25.5-18.11-42,2.15-14.67,9.88-20.25,24.31-23.23,15-3.1,29.57-1.5,44.09.86,8.36,1.35,16.51,4.92,24.32,8.45,9.82,4.43,11.2,14.12,12.61,23.45a25.28,25.28,0,0,1,.08,4c-.05,7.26-.8,8.08-8.1,7.89-11-.28-21.95-.77-32.93-1.05-4-.1-5.83-1.82-5.7-5.82.07-2.33-.08-4.66-.15-7-.12-4.06-1.61-6.59-6.25-6.61-4.95,0-5.63,3-5.72,6.86-.13,5.63,1.53,10.23,7,12.65,9.25,4.08,18.57,8,27.8,12.13a121.64,121.64,0,0,1,12.44,6.27c9.46,5.63,14.52,14,14.42,25.13-.07,7.29.39,14.82-1.26,21.81-2.58,10.95-12.13,15.3-21.77,18.57C442.48,413,430.08,415.24,418.16,414.22Z" transform="translate(1 1)"/><path class="cls-3" d="M748.72,346.94c0-24.65.08-49.3-.08-73.94,0-4.17,1.11-6.62,5.41-7.37,7.19-1.25,14.34-2.65,21.5-4q17.07-3.33,34.13-6.75c4.7-.94,9.36-2.11,14.08-3,3.5-.65,5.55,1,5.41,4.62-.33,8.63-.39,17.31-1.55,25.84-.26,2-4.21,4.32-6.85,5a152,152,0,0,1-19.6,3.24c-3.32.37-4.57,1.37-4.48,4.88.24,10.32.08,20.65.12,31,0,6.39.26,6.61,6.88,6.64,4.83,0,9.66,0,14.49,0,4.17-.05,6.11,2,6.05,6.11-.06,4.33-.09,8.66,0,13,.12,4.7-2.15,6.61-6.73,6.48-5-.15-10,.18-15-.08-4.38-.23-5.88,1.49-5.78,5.81.46,20.13.72,40.27,1,60.41,0,1,0,2,0,3,0,9.69-.47,9.85-10.07,7.56-6.43-1.53-13-2.3-19.57-3.45-5.22-.92-10.45-1.81-15.65-2.87-4-.81-3.78-4.11-3.78-7.13q0-27.22,0-54.46Z" transform="translate(1 1)"/><path class="cls-3" d="M531.5,284.07c11,0,22,.14,33-.07,4.65-.1,6.78,1.42,6.56,6.29-.26,5.48-.21,11,0,16.48.17,4.78-1.86,6.5-6.57,6.33-6.32-.23-12.67.29-19,.07-4.25-.16-5.68,1.51-5.35,5.55a54.69,54.69,0,0,1,0,8.49c-.31,4.25,1.28,6.1,5.72,5.89,5.48-.26,11,.07,16.48-.09,4.17-.13,6.22,1.43,6.07,5.8-.17,4.83-.12,9.66,0,14.49.07,4.17-1.94,5.55-5.93,5.26-5.8-.43-11.63-.53-17.44-.82-3.33-.17-4.92,1.22-4.84,4.68.12,4.83.1,9.66,0,14.49-.08,3.92,2,5.31,5.58,5.33,7.5,0,15,.23,22.49.14,3.77-.05,5.78,1.85,6,5.22a120.57,120.57,0,0,1,.2,18.42c-.14,1.69-3.44,4.45-5.29,4.45-14.78,0-29.56-.67-44.34-1-9.49-.2-19-.14-28.48-.21-7.18-.05-8.06-1.15-7.07-8.3a54.81,54.81,0,0,0,.53-7.46q.06-46.47,0-92.95a54.13,54.13,0,0,0-.44-7c-.9-6.55.47-8.5,7.18-8.92,5.15-.32,10.33-.14,15.49-.15,6.5,0,13,0,19.49,0Z" transform="translate(1 1)"/><path class="cls-4" d="M177,347.63c0-22,0-43.95,0-65.92,0-2.52-1.25-6.34,3.37-6.32,3.87,0,5.19,2.6,5.67,6.23,4.38,33.17,2,66.49,2.2,99.73.05,10.43-1.44,20.86-2.24,31.28-.07,1,.09,2.4-.48,2.89a72.5,72.5,0,0,1-6.15,4.36c-.8-1.77-2.29-3.54-2.3-5.32-.16-22.31-.1-44.62-.1-66.93Z" transform="translate(1 1)"/><path class="cls-4" d="M671.87,347.11c0-9-.21-18,.08-27,.18-5.28,1.19-10.53,1.78-15.8a5.24,5.24,0,0,1,6.21-4.95c1.26.18,2.89,3.68,2.95,5.71.52,18.62.88,37.25,1,55.88,0,9.8-.41,19.62-1,29.41-.09,1.62-1.64,4.06-3,4.52-2.66.86-5.44,0-5.9-3.52-.75-5.76-1.76-11.52-2-17.3C671.63,365.11,671.87,356.11,671.87,347.11Z" transform="translate(1 1)"/></svg>