<?xml version="1.0" encoding="utf-8"?>
<!-- Generator: Adobe Illustrator 23.0.3, SVG Export Plug-In . SVG Version: 6.00 Build 0)  -->
<svg version="1.1" id="Layer_1" xmlns="http://www.w3.org/2000/svg" xmlns:xlink="http://www.w3.org/1999/xlink" x="0px" y="0px"
	 viewBox="0 0 1023.7 865.1" style="enable-background:new 0 0 1023.7 865.1;" xml:space="preserve">
<style type="text/css">
	.st0{fill:#253C8D;}
	.st1{fill:#BC1D33;}
	.st2{fill:#FFFFFF;}
</style>
<g>
	<path class="st0" d="M0,179.9c7.5,2.7,14.9,5.4,22.4,8c16.1,5.7,32.1,11.6,48.3,17.1c14.6,5,29.4,9.5,44.1,14.2
		c1.1,0.4,2.3,0.5,3.4,0.7c4.3,0.8,7.5,2.4,7.1,7.7c-0.1,1.5,0.9,3.2,1.7,6.1c3.7-6.4,6.8-11.4,9.7-16.6
		c13.7-24.5,30.2-47,48.6-68.2c14.5-16.8,30.3-32.2,47.2-46.6c24.7-21,51.4-39.1,80.4-53.6c16.3-8.1,33-15.8,50.1-22.1
		c15.3-5.7,31.3-10,47.2-13.9c16.1-3.9,32.6-6.4,48.9-9.3c3.1-0.6,6.4-0.1,9.5-0.7c20.3-3.5,40.7-3.2,61.1-2.6
		c12.4,0.4,24.7,2.6,37,4.2c6.9,0.9,13.8,1.9,20.7,3.3c12.8,2.6,25.8,4.7,38.3,8.4c16.2,4.8,32.2,10.3,48,16.5
		c31.7,12.4,61.2,29.1,88.8,49c32.6,23.5,62,50.5,86.2,82.6c13.1,17.3,24.6,35.9,36.7,54c2.7,4,5,6.3,10.4,4.5
		c16.1-5.2,32.4-9.6,48.5-14.8c15.3-4.9,30.5-10.4,45.6-15.8c10.2-3.6,20.2-7.6,30.3-11.4c0.9-0.3,1.8-0.5,3.4-1
		c0.1,2.2,0.2,3.9,0.2,5.6c0,103,0,206-0.1,309c0,3.9-1.8,7.9-3.1,11.7c-6.3,19.5-12.7,39.1-19,58.6c-5.4,16.7-10.7,33.5-16.2,50.2
		c-3.7,11.3-7.8,22.6-11.5,33.9c-3.7,11.3-7.3,22.6-10.9,34c-0.6,0-1.1-0.1-1.7-0.1c0-10.7,0-21.4,0-32.1c0-33.8-0.1-67.6,0-101.5
		c0-16.8,0.3-33.7,0.6-50.5c0.1-4.6-0.8-7.6-6.1-8.4c-3.7-0.6-7.2-2.5-10.8-3.8c-4.2-1.5-6.5-0.1-6.9,4.3
		c-2.6,24.7-8.5,48.7-16,72.3c-11.5,36.3-27.7,70.4-48.3,102.5c-17.3,26.9-37.3,51.5-60,73.9c-30.2,29.7-63.7,55-101.6,74.2
		c-17.7,9-35.9,17.3-54.5,24.4c-15.1,5.8-30.9,9.9-46.7,13.6c-16.6,3.9-33.5,6.7-50.3,9.6c-6.7,1.1-13.8,0.1-20.4,1.5
		c-16.5,3.4-33.2,2.3-49.7,1.5c-17.8-0.9-35.5-4-53.1-6.9c-13.7-2.3-27.5-5-40.9-8.8c-15.6-4.4-31-9.7-46.1-15.6
		c-34.9-13.6-67.2-31.8-97.2-54.3c-29.8-22.4-56.6-47.9-79.8-77.2c-15.2-19.1-28.7-39.1-40.6-60.4c-12.9-23.1-23.4-47.3-31.8-72.4
		c-6.6-19.9-12-40-15.2-60.7c-0.8-5.2-1.4-10.5-2.6-15.7c-0.5-2-3.1-5.4-3.8-5.1c-3.4,1.1-8.1,0-9.6,4.9c-0.3,0.9-0.2,2-0.2,3
		c-0.4,28.5-0.7,56.9-1.1,85.4c-0.3,27.5-0.6,55-0.9,82.4c0,1.8-0.2,3.6-1.5,5.8c-2.5-6.3-5.1-12.5-7.6-18.8
		c-7.3-18.2-14.5-36.4-21.7-54.6c-5.4-13.9-10.7-27.9-16-41.9c-5.7-15-11.2-30.1-16.9-45.1c-1-2.6-2.7-4.9-4.1-7.3
		C0,393.9,0,286.9,0,179.9z M834.7,313.6c0.3,10.2,0.1,39.4,0.1,49.6c0,1.8-0.2,3.5-0.3,5.5c-4.4,0-8.3,0.2-12.1-0.1
		c-3.8-0.3-6.1,1.3-8.1,4.5c-4.2,6.7-7.4,13.3-6.7,21.7c1,11.7,0.9,23.6,1.1,35.3c0.1,6.4,0,12.8,0,20.1c-4.2-1-7.3-1.9-10.5-2.5
		c-14.1-2.6-28.1-5.4-42.3-7.5c-4-0.6-8.6,0.1-12.3,1.6c-10.4,4.1-20.6,8.8-30.8,13.3c-3.1,1.4-6,3.1-9.1,4.7c0.1,0.7,0.3,1.3,0.4,2
		c11.8,2.6,23.9,0.9,35.8,1.2c12,0.3,24,0.7,36-0.1c11.9-0.8,23.6-2.9,35.6-4.4c-2.1,1.9-3.9,3.8-5.9,5.4
		c-20.9,16-41.8,32-62.8,47.8c-1.1,0.8-3.3,1.1-4.7,0.7c-5.8-1.6-11.5-4-17.4-5.4c-9.4-2.3-18.7-2-27.8,1.7
		c-8.2,3.3-14.3,8.8-18.9,16.6c-5.6,9.5-5,20-5.1,29.9c-0.5,47.7-0.4,95.3,0,143c0.1,7.4-2.4,12.7-7.2,17.6
		c-1.3,1.3-2.7,2.5-3.9,3.9c-14.7,16.7-29.3,33.3-43.9,50.1c-5.4,6.2-10.7,12.6-16.1,18.9c-3.2,3.6-6.5,7.1-10.7,11.8
		c0-3.8,0-5.9,0-8c0-106,0-212,0-318c0-1.7,0.2-3.4-0.1-5c-0.2-1.2-0.7-3.1-1.4-3.3c-1.2-0.3-3.1,0.1-3.9,1c-2,2.1-3.5,4.7-5.3,7.1
		c-14.2,18.7-28.4,37.5-42.7,56.2c-4.7,6.1-9.3,12.2-14.1,18.4c-5-5.9-9.7-11.2-14.2-16.7c-17-20.9-33.9-41.9-51.1-62.8
		c-1.6-2-4.4-3-6.7-4.4c-0.6,2.4-1.8,4.8-1.8,7.2c-0.1,107.2-0.1,214.3-0.1,321.5c0,1.8,0,3.7,0,6.6c-1.8-1.6-2.6-2.2-3.3-2.9
		c-28.6-28.6-57.2-57.2-85.9-85.7c-3.2-3.2-4.5-6.4-4.5-10.9c0.2-41.8,0.2-83.7,0-125.5c0-12.1-0.4-24.2-1.1-36.3
		c-0.5-9.1-4.5-17.1-11.5-22.9c-17.3-14.3-35.9-11.9-55-4c-1.9,0.8-5,0.6-6.7-0.4c-3.8-2.3-7-5.5-10.6-8.2
		c-19.3-14.8-38.6-29.5-59.1-45.2c2.6,0.2,3.8,0.2,4.9,0.3c10.4,1.6,20.8,4.2,31.2,4.5c21.5,0.7,43,0.2,64.5,0.2
		c1.5,0,3.1,0,4.4-0.6c1.1-0.4,1.9-1.6,2.8-2.5c-0.9-0.8-1.6-2-2.6-2.5c-3.3-1.5-6.8-2.5-10.1-4c-12.4-5.8-24.8-11.9-37.2-17.7
		c-7-3.3-14.4-6-19.4-12.5c-3.9-5.1-6.1-4.8-9.1,0.8c-7.6,14.3-21,22.4-34.2,30c-6.1,3.5-13.7,4.6-20.7,6.2
		c-18.8,4.1-37.2,5.1-52.8-9.5c-0.8-0.8-2.7-1.2-3.6-0.8c-0.9,0.4-1.5,2.1-1.6,3.2c-0.2,4-0.6,8.1,0,12c1,6-2.4,7.8-6.9,9.1
		c-2.8,0.8-5.7,1.5-8.5,2.4c-6.8,2.1-7.8,3.9-6.3,11.3c1.3,6.5,2.2,13,3.6,19.4c3.6,16,6.7,32.3,11.5,48c4.6,15,10.4,29.8,17,44.1
		c7.7,16.7,16,33.4,25.8,49c9.9,15.8,21.6,30.6,33,45.4c16.8,21.9,36.9,40.8,58.3,58.1c21.5,17.5,44.6,32.7,69.3,45.2
		c13,6.6,26.2,13.2,39.9,18.3c24.1,9,48.6,17,74.3,20.6c17.6,2.5,35.3,5.5,53,6.5c16,1,32.3,0.2,48.3-0.8c15-0.9,30-2.4,44.8-5
		c17-3,34-6.5,50.5-11.6c17.6-5.5,34.9-12.3,51.5-20.2c17.7-8.4,35.1-17.7,51.4-28.6c17.4-11.6,33.9-24.9,49.8-38.7
		c13.3-11.5,26-24,37.3-37.4c13.1-15.5,25.4-32,36.1-49.2c11-17.6,20.3-36.4,29.4-55.2c5-10.3,8.7-21.4,12.3-32.4
		c4.4-13.6,8.8-27.3,12-41.3c2.9-12.5,3.9-25.4,6.4-38c1-5.2-0.9-6.8-5.2-8c-14.5-3.9-29-7.8-43.4-12c-1.7-0.5-4.1-2.2-4.4-3.7
		c-0.9-4.5-1.1-9.2-1.2-13.8c-0.1-66.7-0.1-133.3,0-200c0-5.4,1.2-10.8,1.7-16.2c0.2-2.1,0.5-4.8-0.5-6.3
		c-8.4-12.9-16.9-25.7-25.9-38.3c-17.3-24.3-37.9-45.7-60.4-65.2c-20.3-17.6-42-33.3-65.6-46.2c-14.9-8.1-30.1-16-45.7-22.6
		c-13.3-5.6-27.3-9.6-41.1-13.9c-11.5-3.5-23.1-7.1-34.9-9.4c-12.8-2.5-25.8-3.7-38.7-5.3c-5.1-0.6-10.2-0.8-15.4-1.1
		c-9.7-0.6-19.5-1.7-29.2-1.7c-8.9,0-17.8,1.5-26.7,1.7c-19.6,0.6-38.7,4-57.8,7.9c-21.9,4.4-43.1,10.9-63.8,19
		c-28.5,11.2-55.8,25.1-80.7,43c-16.6,12-32.8,24.7-48.2,38.3c-21.2,18.7-39.5,40.3-55.8,63.5c-6.8,9.7-13.2,19.8-19.6,29.8
		c-2.7,4.3-1.2,8.1,3.1,8c10.6-0.3,20.8,1.2,30.8,4.3c4.8,1.5,6.6-1.1,8.3-4.6c1.8-3.7,3.5-7.5,5.4-11.1
		c11.4-21.7,28.4-38.1,49.2-50.5c18.1-10.8,37.8-18,58.3-22.7c3.7-0.8,7.4-1.5,10.6-2.1c-7.6,8.4-15.5,16.6-22.7,25.5
		c-10.5,13-16.6,28.3-20.1,44.4c-2,9.6-1.7,19.7-2.3,29.7c-0.7,12,2.7,11.7,12.3,13.2c18.6,2.9,37.3,4.8,55.9,7.2
		c6.9,0.9,7.2,0.7,7.2-6.4c0-33,0-66,0-99c0-1.8,0-3.5,0-6.1c1.7,1.5,2.7,2.3,3.5,3.3c14.4,16,28.8,32.1,43.2,48.1
		c7.5,8.4,15.2,16.6,22.8,24.9c16.6,18,33.3,36,50,53.9c1.2,1.3,3.5,1.6,5.2,2.4c0.7-1.9,1.9-3.7,2-5.6c0.3-6.5,0.2-6.6,6.8-6.6
		c25.7,0,51.3,0,77,0.1c6.2,0,11-1.8,14.7-7.3c3.8-5.8,8.6-10.9,13-16.3c13-15.9,26-31.8,38.9-47.7c10.7-13.3,21.2-26.7,31.9-40
		c2.1-2.6,4.5-5.1,7.4-8.5c0,16.7,0,32.1,0,47.6c0,18.8,0,37.7,0,56.5c0,3.7,1.3,5.6,5.2,5.5c10.7-0.3,21.4-1.1,32.1-0.5
		c10.2,0.5,18.8,5.5,26.4,12.3c1,0.9,2.3,1.4,3.4,2.1c0.8-1.4,2.1-2.6,2.3-4.1c0.3-3.6,0.3-7.3,0.1-11c-0.2-4.2,2.1-6,5.8-6.5
		c1.6-0.2,3.6,0.5,4.9-0.2c2.6-1.4,6.4-3.1,6.9-5.3c2.6-11,1.3-22.2-1.4-32.9c-2.4-9.8-6.8-19.2-11.4-28.3
		c-5.6-11-13.7-20.3-23.2-28.2c-6.6-5.5-13.3-10.9-20.1-16.4c8.1,2,16.5,3.3,24.4,6.1c11.8,4.2,23.5,8.8,34.8,14.1
		c20.2,9.4,37.3,22.9,49.7,41.5c6.1,9.1,10.9,19.2,16.1,28.9c1.9,3.6,3.9,5.6,8.2,3.8c2.2-0.9,4.7-0.9,7.4-1.4
		c0.1,1.6,0.3,2.5,0.3,3.5c-0.6,13.7-1.3,27.5-2,41.2L834.7,313.6z M943.3,291.7c-0.7-2.3-1.3-3.6-1.4-5
		c-1.9-19.2-3.8-38.4-5.6-57.6c-0.5-5-2.4-6.3-7.2-4.9c-16,4.8-32,9.7-48.2,14.1c-4.8,1.3-6.1,3.6-6.1,8c0.1,10.7,0,21.3,0,32
		c0,57,0.1,114,0,171c0,3.9,1.9,6.1,5.2,7c10,2.9,20.1,5.7,30.2,8.2c5.4,1.3,6.2,0.5,6.2-5c-0.1-30.3-0.2-60.6-0.3-91
		c0-9.2,0-18.3,0-27.5c0.9,2.6,1,5.3,1.3,7.9c2.6,27.6,5.1,55.3,7.9,82.9c1.2,11.7,2.9,23.4,4.8,35.1c0.3,1.8,2.3,4.1,4.1,4.8
		c6.8,2.6,13.8,4.7,20.9,6.6c1.4,0.4,3.8-1,4.8-2.3c1-1.3,1.1-3.5,1.2-5.3c1.1-13.4,2.1-26.9,3.3-40.3c0.9-10.8,1.9-21.5,2.9-32.3
		c1.6-16.9,3.2-33.7,4.8-50.6c0.9-9.3,2-18.5,3.1-28.6c0.3,1.3,0.4,1.8,0.4,2.3c-0.5,24-1.1,47.9-1.6,71.9
		c-0.4,20.1-0.8,40.3-0.9,60.4c-0.2,38.7-0.3,77.3-0.4,116c0,2.1-0.5,4.3-0.6,6.4c-0.3,10.1-0.6,20.3-0.7,30.4
		c0,1.1,1.5,2.2,2.2,3.2c1-1,2.3-1.8,2.8-3c0.8-1.8,1.1-3.8,1.7-5.7c4.6-14.2,9.3-28.4,13.9-42.6c4.7-14.3,9.2-28.7,13.9-43
		c3.6-10.9,6.4-21.6,6.3-33.5c-0.4-91.5-0.2-183-0.2-274.4c0-1.8,0-3.7,0-5.5c0-4-1.4-5.5-5.5-4c-15.6,5.6-31.2,11.2-46.9,16.5
		c-5.3,1.8-7.5,4.9-7,10.3c0.2,1.9-0.4,4-0.7,5.9c-1.4,10.2-2.9,20.4-4.2,30.6c-1.1,9.2-2,18.5-3,27.7
		C944.6,289.6,944.2,290.1,943.3,291.7z M11.9,348.4c0,47.7,0,95.3,0,143c0,2.5-0.1,5.1,0.7,7.4c4.9,13.9,10,27.8,15.2,41.6
		c8.1,21.2,16.3,42.4,24.5,63.6c0.5,1.4,2.3,2.3,3.5,3.5c0.7-1.4,1.8-2.7,1.9-4.1c0.4-6.5,0.6-13,0.6-19.5c0.2-73,0.3-146,0.5-219
		c0-0.3,0-0.7,0-1c0.1-5.3,1-5.9,6.2-5.3c4.4,0.5,3.7,3.7,3.6,6.4c-0.4,35.3-0.9,70.6-1.3,105.9c-0.1,6.3,2,7.6,8,5.7
		c10.6-3.3,21.2-6.4,31.8-9.8c3.3-1.1,7.1-1.8,7.2-6.9c0.6-27.9,2-55.9,2-83.8c-0.1-42.1-1.2-84.2-1.9-126.3c-0.1-5,0.3-10.1-0.3-15
		c-0.3-2.1-2.3-5-4.2-5.6c-12.1-4-24.4-7.5-36.6-11.2c-4.5-1.4-5.7-0.8-5.8,4.1c-0.1,8,0,16,0.1,24c0.4,27.3,0.7,54.6,1.2,81.9
		c0.1,4-1.8,5.2-5.5,5.2c-4.6,0-4.4-2.9-4.4-6.1c-0.1-32.2-0.3-64.3-0.5-96.5c0-4.5-0.3-9-0.6-13.5c-0.2-3.1-1.4-5.3-4.7-6.2
		c-3.5-1-6.8-2.6-10.2-3.8c-8.7-3.1-17.5-6.1-26.2-9.2c-3.1-1.1-4.4,0-4.6,3.1c-0.1,1.7-0.1,3.3-0.1,5
		C11.9,253.4,11.9,300.9,11.9,348.4z M129,347.1c0,22-0.1,44,0.1,66c0.1,5.9,0.5,12.1,2,17.8c2.9,11,12.1,20.4,25.3,21.2
		c21.7,1.4,41.2-4.8,58.3-17.7c12.6-9.5,20.5-21.9,20.5-38.5c-0.1-32-0.2-64,0-95.9c0.1-11-3.1-20.9-10-29
		c-18.2-21.3-42.1-29.7-69.7-28c-11,0.7-19.1,6.9-22.8,17.4c-2,5.7-3.4,11.9-3.5,17.9C128.8,301.2,129,324.1,129,347.1z M248.8,349
		c0.1,0,0.2,0,0.4,0c0,17-0.3,34,0.1,51c0.2,10.8,5.2,19.9,15.4,23.7c8,3,17.2,4.5,25.8,4.1c11.5-0.6,23.1-2.9,34.1-6.2
		c13.5-4,25.1-12,30.2-25.5c3-8,3.5-17.2,3.8-25.9c0.4-12-0.4-24-0.7-35.9c-0.5-17.1-1-34.2-1.5-51.4c0-0.8,0.2-1.9-0.3-2.4
		c-1-1.3-2.2-3.2-3.5-3.4c-13-1.9-26-3.6-39-5.1c-6-0.7-6.6,0-6.5,6.2c0.3,19.5,0.8,38.9,1,58.4c0.2,16.2,0.1,32.3,0,48.5
		c0,3.6-0.2,7.5-1.3,10.9c-0.6,1.8-3.4,2.8-5.1,4.2c-1.1-1.5-2.7-2.9-3.1-4.6c-0.6-2-0.2-4.3-0.2-6.5c-0.4-36.5-0.7-72.9-1.2-109.4
		c0-2.5-0.5-5-1.3-7.3c-0.4-1.2-1.8-2.6-2.9-2.9c-4.8-1.1-9.8-1.8-14.7-2.6c-8.3-1.4-16.7-2.6-25-4.2c-4.4-0.8-6.1,0.6-5.9,5.1
		c0.6,10.6,1.3,21.2,1.4,31.9C249,316,248.8,332.5,248.8,349z M732.2,347.2C732.2,347.2,732.1,347.2,732.2,347.2
		c-0.1-7.8-0.1-15.7-0.1-23.5c0-7.8,0.2-15.7,0-23.5c-0.2-7.8-3.7-13.8-9.6-18.9c-8.8-7.6-19.8-9-30.4-9c-12.3,0-24.6,2.3-36.6,6.2
		c-20.7,6.8-32.3,20.9-32.2,42.5c0.1,20.4,1.1,40.9,1.2,61.3c0.1,9.7,4.5,16.8,11.4,22.8c9.7,8.4,21.3,12.2,33.8,14.6
		c14.2,2.7,28.2,3.7,42.3-0.5c11.8-3.5,19.8-13.2,20.1-25.6C732.4,378.2,732.2,362.7,732.2,347.2z M418.2,414.2
		c11.9,1,24.3-1.3,36.4-5.4c9.6-3.3,19.2-7.6,21.8-18.6c1.6-7,1.2-14.5,1.3-21.8c0.1-11.1-5-19.5-14.4-25.1c-4-2.4-8.2-4.4-12.4-6.3
		c-9.2-4.1-18.5-8-27.8-12.1c-5.5-2.4-7.1-7-7-12.6c0.1-3.9,0.8-6.9,5.7-6.9c4.6,0,6.1,2.6,6.2,6.6c0.1,2.3,0.2,4.7,0.1,7
		c-0.1,4,1.7,5.7,5.7,5.8c11,0.3,22,0.8,32.9,1c7.3,0.2,8-0.6,8.1-7.9c0-1.3,0.1-2.7-0.1-4c-1.4-9.3-2.8-19-12.6-23.5
		c-7.8-3.5-16-7.1-24.3-8.5c-14.5-2.4-29.1-4-44.1-0.9c-14.4,3-22.2,8.6-24.3,23.2c-2.4,16.5,2.1,33.4,18.1,42
		c11.7,6.3,23.3,12.7,35.2,18.7c8.6,4.4,8.7,10.8,7.6,18.6c-0.6,3.9-5.1,6.5-9.1,6.1c-5-0.5-4.3-4.3-4.3-7.5
		c-0.1-3.2,0.1-6.3,0.1-9.5c0-8.9,0-8.9-8.6-8.3c-1.3,0.1-2.7,0-4,0c-8.7,0.1-17.3,0.2-26,0.4c-3.7,0.1-7.6,1-7.9,5.2
		c-0.5,6.6-0.8,13.4,0.3,19.9c1.5,9.2,6.6,15.8,15.7,19.6C396.5,414.1,406.7,414.6,418.2,414.2z M748.7,346.9c0,6.8,0,13.7,0,20.5
		c0,18.2,0,36.3,0,54.5c0,3-0.2,6.3,3.8,7.1c5.2,1.1,10.4,1.9,15.7,2.9c6.5,1.1,13.1,1.9,19.6,3.5c9.6,2.3,10.1,2.1,10.1-7.6
		c0-1,0-2,0-3c-0.3-20.1-0.6-40.3-1.1-60.4c-0.1-4.3,1.4-6,5.8-5.8c5,0.3,10-0.1,15,0.1c4.6,0.1,6.8-1.8,6.7-6.5
		c-0.1-4.3-0.1-8.7,0-13c0.1-4.2-1.9-6.2-6-6.1c-4.8,0-9.7,0-14.5,0c-6.6,0-6.9-0.2-6.9-6.6c0-10.3,0.1-20.7-0.1-31
		c-0.1-3.5,1.2-4.5,4.5-4.9c6.6-0.7,13.2-1.7,19.6-3.2c2.6-0.7,6.6-3,6.9-5c1.2-8.5,1.2-17.2,1.5-25.8c0.1-3.6-1.9-5.3-5.4-4.6
		c-4.7,0.9-9.4,2-14.1,3c-11.4,2.3-22.7,4.5-34.1,6.7c-7.2,1.4-14.3,2.8-21.5,4c-4.3,0.7-5.4,3.2-5.4,7.4
		C748.8,297.6,748.7,322.3,748.7,346.9z M531.5,284.1c0,0.2,0,0.3,0,0.5c-6.5,0-13,0-19.5,0c-5.2,0-10.3-0.2-15.5,0.2
		c-6.7,0.4-8.1,2.4-7.2,8.9c0.3,2.3,0.4,4.6,0.4,7c0,31,0,62,0,93c0,2.5-0.2,5-0.5,7.5c-1,7.2-0.1,8.2,7.1,8.3
		c9.5,0.1,19,0,28.5,0.2c14.8,0.3,29.6,0.9,44.3,1c1.9,0,5.2-2.8,5.3-4.4c0.5-6.1,0.2-12.3-0.2-18.4c-0.2-3.4-2.2-5.3-6-5.2
		c-7.5,0.1-15-0.1-22.5-0.1c-3.6,0-5.7-1.4-5.6-5.3c0.1-4.8,0.1-9.7,0-14.5c-0.1-3.5,1.5-4.8,4.8-4.7c5.8,0.3,11.6,0.4,17.4,0.8
		c4,0.3,6-1.1,5.9-5.3c-0.1-4.8-0.1-9.7,0-14.5c0.2-4.4-1.9-5.9-6.1-5.8c-5.5,0.2-11-0.2-16.5,0.1c-4.4,0.2-6-1.6-5.7-5.9
		c0.2-2.8,0.2-5.7,0-8.5c-0.3-4,1.1-5.7,5.3-5.6c6.3,0.2,12.7-0.3,19-0.1c4.7,0.2,6.7-1.6,6.6-6.3c-0.2-5.5-0.2-11,0-16.5
		c0.2-4.9-1.9-6.4-6.6-6.3C553.5,284.2,542.5,284.1,531.5,284.1z"/>
	<path class="st1" d="M838.7,282.8c0.8-13.7,1.4-27.5,2-41.2c0-1-0.1-1.9-0.3-3.5c-2.7,0.5-5.2,0.5-7.4,1.4
		c-4.3,1.7-6.3-0.2-8.2-3.8c-5.2-9.8-10-19.8-16.1-28.9c-12.4-18.6-29.6-32.1-49.7-41.5c-11.3-5.3-23-10-34.8-14.1
		c-7.9-2.8-16.2-4.1-24.4-6.1c6.8,5.5,13.5,10.9,20.1,16.4c9.5,7.9,17.7,17.2,23.2,28.2c4.6,9.1,9,18.5,11.4,28.3
		c2.6,10.6,4,21.9,1.4,32.9c-0.5,2.2-4.3,3.9-6.9,5.3c-1.3,0.7-3.3,0-4.9,0.2c-3.7,0.5-6,2.3-5.8,6.5c0.2,3.7,0.2,7.4-0.1,11
		c-0.1,1.4-1.5,2.7-2.3,4.1c-1.1-0.7-2.4-1.2-3.4-2.1c-7.6-6.8-16.2-11.8-26.4-12.3c-10.7-0.6-21.4,0.2-32.1,0.5
		c-3.9,0.1-5.2-1.8-5.2-5.5c0.1-18.8,0-37.7,0-56.5c0-15.5,0-30.9,0-47.6c-3,3.4-5.3,5.8-7.4,8.5c-10.7,13.3-21.2,26.7-31.9,40
		c-12.9,16-25.9,31.8-38.9,47.7c-4.4,5.4-9.1,10.6-13,16.3c-3.7,5.5-8.5,7.4-14.7,7.3c-25.7-0.1-51.3-0.1-77-0.1
		c-6.7,0-6.5,0-6.8,6.6c-0.1,1.9-1.3,3.7-2,5.6c-1.8-0.8-4-1.1-5.2-2.4c-16.8-17.9-33.4-35.9-50-53.9c-7.6-8.3-15.3-16.5-22.8-24.9
		c-14.4-16-28.8-32.1-43.2-48.1c-0.9-0.9-1.9-1.7-3.5-3.3c0,2.6,0,4.4,0,6.1c0,33,0,66,0,99c0,7.2-0.3,7.3-7.2,6.4
		c-18.6-2.4-37.4-4.4-55.9-7.2c-9.6-1.5-12.9-1.2-12.3-13.2c0.6-9.9,0.2-20,2.3-29.7c3.4-16.1,9.6-31.4,20.1-44.4
		c7.1-8.9,15.1-17,22.7-25.5c-3.1,0.6-6.9,1.2-10.6,2.1c-20.6,4.6-40.2,11.9-58.3,22.7c-20.8,12.4-37.8,28.8-49.2,50.5
		c-1.9,3.7-3.6,7.4-5.4,11.1c-1.7,3.5-3.5,6.1-8.3,4.6c-10-3.1-20.3-4.6-30.8-4.3c-4.3,0.1-5.8-3.7-3.1-8
		c6.4-10,12.7-20.1,19.6-29.8c16.3-23.2,34.6-44.7,55.8-63.5c15.4-13.6,31.6-26.3,48.2-38.3c24.9-17.9,52.2-31.8,80.7-43
		c20.7-8.1,41.9-14.6,63.8-19c19.1-3.9,38.3-7.3,57.8-7.9c8.9-0.3,17.8-1.8,26.7-1.7c9.7,0,19.5,1.1,29.2,1.7
		c5.1,0.3,10.3,0.5,15.4,1.1c12.9,1.6,26,2.7,38.7,5.3c11.8,2.3,23.4,5.9,34.9,9.4c13.8,4.3,27.9,8.2,41.1,13.9
		c15.6,6.6,30.7,14.5,45.7,22.6c23.6,12.8,45.3,28.6,65.6,46.2c22.5,19.5,43.1,40.9,60.4,65.2c8.9,12.5,17.4,25.4,25.9,38.3
		c1,1.6,0.7,4.2,0.5,6.3c-0.4,5.4-1.7,10.8-1.7,16.2c-0.1,66.7-0.1,133.3,0,200c0,4.6,0.3,9.3,1.2,13.8c0.3,1.5,2.7,3.2,4.4,3.7
		c14.4,4.2,28.9,8.1,43.4,12c4.3,1.2,6.3,2.8,5.2,8c-2.5,12.6-3.5,25.5-6.4,38c-3.2,13.9-7.6,27.7-12,41.3c-3.6,11-7.2,22-12.3,32.4
		c-9.2,18.7-18.4,37.5-29.4,55.2c-10.8,17.2-23.1,33.6-36.1,49.2c-11.3,13.4-24,25.9-37.3,37.4c-15.9,13.8-32.3,27-49.8,38.7
		c-16.2,10.9-33.7,20.2-51.4,28.6c-16.6,7.9-34,14.7-51.5,20.2c-16.4,5.2-33.5,8.6-50.5,11.6c-14.8,2.6-29.8,4.1-44.8,5
		c-16.1,1-32.3,1.8-48.3,0.8c-17.7-1.1-35.4-4.1-53-6.5c-25.6-3.6-50.2-11.6-74.3-20.6c-13.7-5.1-26.8-11.7-39.9-18.3
		c-24.7-12.5-47.8-27.8-69.3-45.2c-21.4-17.4-41.4-36.2-58.3-58.1c-11.4-14.8-23.1-29.6-33-45.4c-9.7-15.6-18-32.2-25.8-49
		c-6.6-14.3-12.4-29.1-17-44.1c-4.8-15.7-7.8-32-11.5-48c-1.5-6.4-2.4-13-3.6-19.4c-1.4-7.4-0.5-9.1,6.3-11.3
		c2.8-0.9,5.7-1.5,8.5-2.4c4.5-1.3,8-3.1,6.9-9.1c-0.7-3.9-0.2-8,0-12c0.1-1.2,0.7-2.8,1.6-3.2c0.9-0.4,2.8,0,3.6,0.8
		c15.5,14.7,33.9,13.6,52.8,9.5c7.1-1.5,14.7-2.7,20.7-6.2c13.3-7.7,26.6-15.8,34.2-30c3-5.6,5.1-5.9,9.1-0.8
		c5,6.4,12.3,9.2,19.4,12.5c12.4,5.8,24.8,11.9,37.2,17.7c3.3,1.5,6.8,2.6,10.1,4c1,0.5,1.7,1.6,2.6,2.5c-0.9,0.9-1.7,2-2.8,2.5
		c-1.3,0.5-2.9,0.6-4.4,0.6c-21.5,0-43,0.5-64.5-0.2c-10.4-0.3-20.8-3-31.2-4.5c-1.1-0.2-2.3-0.2-4.9-0.3
		c20.5,15.7,39.8,30.4,59.1,45.2c3.5,2.7,6.8,5.9,10.6,8.2c1.7,1,4.8,1.2,6.7,0.4c19.1-7.8,37.8-10.3,55,4c7,5.8,11,13.8,11.5,22.9
		c0.7,12.1,1,24.2,1.1,36.3c0.1,41.8,0.1,83.7,0,125.5c0,4.5,1.2,7.7,4.5,10.9c28.7,28.5,57.3,57.1,85.9,85.7
		c0.7,0.7,1.5,1.3,3.3,2.9c0-2.9,0-4.7,0-6.6c0-107.2,0-214.3,0.1-321.5c0-2.4,1.2-4.8,1.8-7.2c2.3,1.4,5.1,2.4,6.7,4.4
		c17.1,20.8,34,41.9,51.1,62.8c4.5,5.5,9.2,10.8,14.2,16.7c4.7-6.2,9.4-12.3,14.1-18.4c14.2-18.7,28.4-37.4,42.7-56.2
		c1.8-2.4,3.3-5,5.3-7.1c0.8-0.9,2.8-1.3,3.9-1c0.7,0.2,1.3,2.1,1.4,3.3c0.2,1.6,0.1,3.3,0.1,5c0,106,0,212,0,318c0,2.1,0,4.3,0,8
		c4.2-4.6,7.5-8.1,10.7-11.8c5.4-6.2,10.7-12.6,16.1-18.9c14.6-16.7,29.3-33.4,43.9-50.1c1.2-1.4,2.6-2.6,3.9-3.9
		c4.7-4.9,7.2-10.2,7.2-17.6c-0.4-47.7-0.5-95.3,0-143c0.1-10-0.5-20.4,5.1-29.9c4.6-7.8,10.7-13.3,18.9-16.6c9-3.7,18.4-4,27.8-1.7
		c5.9,1.5,11.5,3.8,17.4,5.4c1.4,0.4,3.5,0.2,4.7-0.7c21-15.8,41.9-31.8,62.8-47.8c2.1-1.6,3.9-3.5,5.9-5.4
		c-12,1.6-23.7,3.7-35.6,4.4c-12,0.8-24,0.4-36,0.1c-11.9-0.3-24,1.4-35.8-1.2c-0.1-0.7-0.3-1.3-0.4-2c3-1.6,6-3.3,9.1-4.7
		c10.2-4.6,20.4-9.3,30.8-13.3c3.8-1.5,8.4-2.2,12.3-1.6c14.2,2.1,28.2,4.9,42.3,7.5c3.2,0.6,6.3,1.5,10.5,2.5
		c0-7.3,0.1-13.7,0-20.1c-0.2-11.8-0.1-23.6-1.1-35.3c-0.7-8.4,2.5-15,6.7-21.7c2-3.2,4.3-4.7,8.1-4.5c3.8,0.3,7.6,0.1,12.1,0.1
		c0.1-2,0.3-3.8,0.3-5.5c0-10.2,0.2-39.4-0.1-49.6L838.7,282.8z"/>
	<path class="st2" d="M943.3,291.7c0.9-1.6,1.4-2.1,1.5-2.7c1-9.2,1.9-18.5,3-27.7c1.3-10.2,2.8-20.4,4.2-30.6c0.3-2,0.8-4,0.7-5.9
		c-0.5-5.5,1.8-8.6,7-10.3c15.7-5.3,31.3-10.9,46.9-16.5c4.2-1.5,5.6,0,5.5,4c0,1.8,0,3.7,0,5.5c0,91.5-0.2,183,0.2,274.4
		c0,11.8-2.8,22.6-6.3,33.5c-4.7,14.3-9.3,28.7-13.9,43c-4.6,14.2-9.3,28.4-13.9,42.6c-0.6,1.9-0.9,3.9-1.7,5.7
		c-0.6,1.2-1.9,2-2.8,3c-0.8-1.1-2.2-2.2-2.2-3.2c0.1-10.2,0.4-20.3,0.7-30.4c0.1-2.2,0.6-4.3,0.6-6.4c0.2-38.7,0.2-77.3,0.4-116
		c0.1-20.1,0.5-40.3,0.9-60.4c0.5-24,1-47.9,1.6-71.9c0-0.5-0.2-1-0.4-2.3c-1.1,10.1-2.2,19.3-3.1,28.6c-1.7,16.9-3.2,33.7-4.8,50.6
		c-1,10.8-2,21.5-2.9,32.3c-1.1,13.4-2.1,26.9-3.3,40.3c-0.2,1.8-0.2,4-1.2,5.3c-1,1.3-3.5,2.7-4.8,2.3c-7.1-1.8-14-4-20.9-6.6
		c-1.8-0.7-3.8-3-4.1-4.8c-1.9-11.6-3.6-23.3-4.8-35.1c-2.8-27.6-5.3-55.2-7.9-82.9c-0.2-2.6-0.4-5.3-1.3-7.9c0,9.2,0,18.3,0,27.5
		c0.1,30.3,0.2,60.6,0.3,91c0,5.5-0.8,6.3-6.2,5c-10.1-2.5-20.2-5.3-30.2-8.2c-3.2-0.9-5.2-3.1-5.2-7c0.1-57,0-114,0-171
		c0-10.7,0.1-21.3,0-32c-0.1-4.4,1.3-6.7,6.1-8c16.1-4.3,32.1-9.3,48.2-14.1c4.9-1.4,6.8-0.2,7.2,4.9c1.8,19.2,3.7,38.4,5.6,57.6
		C942,288.1,942.6,289.4,943.3,291.7z"/>
	<path class="st2" d="M11.9,348.4c0-47.5,0-95,0-142.5c0-1.7,0-3.3,0.1-5c0.1-3.1,1.5-4.2,4.6-3.1c8.7,3.1,17.5,6.1,26.2,9.2
		c3.4,1.2,6.7,2.8,10.2,3.8c3.4,0.9,4.5,3.1,4.7,6.2c0.3,4.5,0.6,9,0.6,13.5c0.2,32.2,0.3,64.3,0.5,96.5c0,3.1-0.2,6.1,4.4,6.1
		c3.7,0,5.6-1.2,5.5-5.2c-0.5-27.3-0.8-54.6-1.2-81.9c-0.1-8-0.3-16-0.1-24c0.1-4.9,1.2-5.5,5.8-4.1c12.2,3.7,24.5,7.2,36.6,11.2
		c1.9,0.6,3.9,3.6,4.2,5.6c0.6,4.9,0.2,10,0.3,15c0.7,42.1,1.8,84.2,1.9,126.3c0.1,27.9-1.4,55.9-2,83.8c-0.1,5.1-3.9,5.8-7.2,6.9
		c-10.5,3.4-21.2,6.5-31.8,9.8c-6,1.9-8,0.6-8-5.7c0.4-35.3,0.9-70.6,1.3-105.9c0-2.7,0.7-5.9-3.6-6.4c-5.3-0.6-6.1,0-6.2,5.3
		c0,0.3,0,0.7,0,1c-0.2,73-0.3,146-0.5,219c0,6.5-0.2,13-0.6,19.5c-0.1,1.4-1.2,2.7-1.9,4.1c-1.2-1.1-2.9-2.1-3.5-3.5
		c-8.3-21.2-16.5-42.3-24.5-63.6c-5.2-13.8-10.3-27.7-15.2-41.6c-0.8-2.3-0.7-4.9-0.7-7.4C11.9,443.8,11.9,396.1,11.9,348.4z"/>
	<path class="st2" d="M129,347.1c0-23-0.2-46,0.2-69c0.1-6,1.5-12.2,3.5-17.9c3.7-10.5,11.8-16.7,22.8-17.4
		c27.5-1.7,51.4,6.7,69.7,28c6.9,8.1,10.1,18,10,29c-0.3,32-0.2,64,0,95.9c0.1,16.6-7.9,29.1-20.5,38.5
		c-17.1,12.9-36.5,19.1-58.3,17.7c-13.1-0.8-22.3-10.2-25.3-21.2c-1.5-5.7-1.9-11.8-2-17.8C128.9,391.1,129,369.1,129,347.1z
		 M177,347.6C177,347.6,177,347.6,177,347.6c0,22.3,0,44.6,0.1,66.9c0,1.8,1.5,3.5,2.3,5.3c2.1-1.4,4.3-2.7,6.1-4.4
		c0.6-0.5,0.4-1.9,0.5-2.9c0.8-10.4,2.3-20.9,2.2-31.3c-0.2-33.2,2.2-66.6-2.2-99.7c-0.5-3.6-1.8-6.2-5.7-6.2
		c-4.6,0-3.4,3.8-3.4,6.3C177,303.7,177,325.7,177,347.6z"/>
	<path class="st2" d="M248.8,349c0-16.5,0.2-33-0.1-49.5c-0.2-10.6-0.9-21.3-1.4-31.9c-0.3-4.6,1.5-6,5.9-5.1
		c8.3,1.6,16.7,2.8,25,4.2c4.9,0.8,9.8,1.5,14.7,2.6c1.2,0.3,2.5,1.7,2.9,2.9c0.8,2.3,1.3,4.9,1.3,7.3c0.4,36.5,0.8,72.9,1.2,109.4
		c0,2.2-0.4,4.4,0.2,6.5c0.5,1.7,2,3.1,3.1,4.6c1.8-1.4,4.6-2.4,5.1-4.2c1.1-3.4,1.2-7.2,1.3-10.9c0.1-16.2,0.2-32.3,0-48.5
		c-0.2-19.5-0.7-39-1-58.4c-0.1-6.2,0.4-6.9,6.5-6.2c13,1.5,26,3.2,39,5.1c1.3,0.2,2.5,2.1,3.5,3.4c0.4,0.6,0.2,1.6,0.3,2.4
		c0.5,17.1,1.1,34.2,1.5,51.4c0.3,12,1.1,24,0.7,35.9c-0.3,8.7-0.8,17.9-3.8,25.9c-5.1,13.5-16.7,21.6-30.2,25.5
		c-11.1,3.2-22.6,5.5-34.1,6.2c-8.5,0.5-17.7-1.1-25.8-4.1c-10.2-3.8-15.1-12.9-15.4-23.7c-0.4-17-0.1-34-0.1-51
		C249,349,248.9,349,248.8,349z"/>
	<path class="st2" d="M732.2,347.2c0,15.5,0.2,31-0.1,46.5c-0.2,12.3-8.3,22.1-20.1,25.6c-14.1,4.2-28.1,3.2-42.3,0.5
		c-12.5-2.4-24.1-6.2-33.8-14.6c-6.9-6-11.4-13.1-11.4-22.8c-0.2-20.4-1.2-40.9-1.2-61.3c-0.1-21.5,11.5-35.7,32.2-42.5
		c12-3.9,24.3-6.2,36.6-6.2c10.6,0,21.6,1.4,30.4,9c5.9,5.1,9.4,11.1,9.6,18.9c0.2,7.8,0,15.7,0,23.5
		C732.1,331.6,732.1,339.4,732.2,347.2C732.1,347.2,732.2,347.2,732.2,347.2z M671.9,347.1c0,9-0.2,18,0.1,27
		c0.2,5.8,1.2,11.5,2,17.3c0.5,3.5,3.2,4.4,5.9,3.5c1.4-0.5,2.9-2.9,3-4.5c0.6-9.8,1-19.6,1-29.4c-0.1-18.6-0.5-37.3-1-55.9
		c-0.1-2-1.7-5.5-2.9-5.7c-3-0.4-5.8,1.2-6.2,4.9c-0.6,5.3-1.6,10.5-1.8,15.8C671.7,329.1,671.9,338.1,671.9,347.1z"/>
	<path class="st2" d="M418.2,414.2c-11.4,0.3-21.7-0.1-31.7-4.3c-9.1-3.8-14.3-10.4-15.7-19.6c-1-6.5-0.8-13.3-0.3-19.9
		c0.3-4.3,4.3-5.2,7.9-5.2c8.7-0.2,17.3-0.3,26-0.4c1.3,0,2.7,0,4,0c8.6-0.6,8.6-0.6,8.6,8.3c0,3.2-0.2,6.3-0.1,9.5
		c0.1,3.2-0.6,7,4.3,7.5c4,0.4,8.5-2.2,9.1-6.1c1.1-7.8,1-14.2-7.6-18.6c-11.8-6-23.5-12.4-35.2-18.7c-16-8.6-20.5-25.5-18.1-42
		c2.1-14.7,9.9-20.3,24.3-23.2c15-3.1,29.6-1.5,44.1,0.9c8.4,1.4,16.5,4.9,24.3,8.5c9.8,4.4,11.2,14.1,12.6,23.5
		c0.2,1.3,0.1,2.7,0.1,4c0,7.3-0.8,8.1-8.1,7.9c-11-0.3-22-0.8-32.9-1c-4-0.1-5.8-1.8-5.7-5.8c0.1-2.3-0.1-4.7-0.1-7
		c-0.1-4.1-1.6-6.6-6.2-6.6c-5,0-5.6,3-5.7,6.9c-0.1,5.6,1.5,10.2,7,12.6c9.2,4.1,18.6,8,27.8,12.1c4.2,1.9,8.5,3.9,12.4,6.3
		c9.5,5.6,14.5,14,14.4,25.1c-0.1,7.3,0.4,14.8-1.3,21.8c-2.6,11-12.1,15.3-21.8,18.6C442.5,413,430.1,415.2,418.2,414.2z"/>
	<path class="st2" d="M748.7,346.9c0-24.6,0.1-49.3-0.1-73.9c0-4.2,1.1-6.6,5.4-7.4c7.2-1.2,14.3-2.6,21.5-4
		c11.4-2.2,22.8-4.5,34.1-6.7c4.7-0.9,9.4-2.1,14.1-3c3.5-0.6,5.6,1,5.4,4.6c-0.3,8.6-0.4,17.3-1.5,25.8c-0.3,2-4.2,4.3-6.9,5
		c-6.4,1.6-13,2.5-19.6,3.2c-3.3,0.4-4.6,1.4-4.5,4.9c0.2,10.3,0.1,20.6,0.1,31c0,6.4,0.3,6.6,6.9,6.6c4.8,0,9.7,0.1,14.5,0
		c4.2,0,6.1,2,6,6.1c-0.1,4.3-0.1,8.7,0,13c0.1,4.7-2.1,6.6-6.7,6.5c-5-0.1-10,0.2-15-0.1c-4.4-0.2-5.9,1.5-5.8,5.8
		c0.5,20.1,0.7,40.3,1.1,60.4c0,1,0,2,0,3c0,9.7-0.5,9.8-10.1,7.6c-6.4-1.5-13-2.3-19.6-3.5c-5.2-0.9-10.5-1.8-15.7-2.9
		c-4-0.8-3.8-4.1-3.8-7.1c0-18.2,0-36.3,0-54.5C748.7,360.6,748.7,353.8,748.7,346.9z"/>
	<path class="st2" d="M531.5,284.1c11,0,22,0.1,33-0.1c4.6-0.1,6.8,1.4,6.6,6.3c-0.3,5.5-0.2,11,0,16.5c0.2,4.8-1.9,6.5-6.6,6.3
		c-6.3-0.2-12.7,0.3-19,0.1c-4.2-0.2-5.7,1.5-5.3,5.6c0.2,2.8,0.2,5.7,0,8.5c-0.3,4.2,1.3,6.1,5.7,5.9c5.5-0.3,11,0.1,16.5-0.1
		c4.2-0.1,6.2,1.4,6.1,5.8c-0.2,4.8-0.1,9.7,0,14.5c0.1,4.2-1.9,5.5-5.9,5.3c-5.8-0.4-11.6-0.5-17.4-0.8c-3.3-0.2-4.9,1.2-4.8,4.7
		c0.1,4.8,0.1,9.7,0,14.5c-0.1,3.9,2,5.3,5.6,5.3c7.5,0,15,0.2,22.5,0.1c3.8,0,5.8,1.9,6,5.2c0.4,6.1,0.7,12.3,0.2,18.4
		c-0.1,1.7-3.4,4.4-5.3,4.4c-14.8,0-29.6-0.7-44.3-1c-9.5-0.2-19-0.1-28.5-0.2c-7.2-0.1-8.1-1.2-7.1-8.3c0.3-2.5,0.5-5,0.5-7.5
		c0-31,0-62,0-93c0-2.3-0.1-4.7-0.4-7c-0.9-6.6,0.5-8.5,7.2-8.9c5.1-0.3,10.3-0.1,15.5-0.2c6.5,0,13,0,19.5,0
		C531.5,284.4,531.5,284.2,531.5,284.1z"/>
	<path class="st0" d="M177,347.6c0-22,0-44,0.1-65.9c0-2.5-1.3-6.3,3.4-6.3c3.9,0,5.2,2.6,5.7,6.2c4.4,33.2,2,66.5,2.2,99.7
		c0.1,10.4-1.4,20.9-2.2,31.3c-0.1,1,0.1,2.4-0.5,2.9c-1.9,1.6-4.1,2.9-6.1,4.4c-0.8-1.8-2.3-3.5-2.3-5.3
		C177,392.3,177,369.9,177,347.6C177,347.6,177,347.6,177,347.6z"/>
	<path class="st0" d="M671.9,347.1c0-9-0.2-18,0.1-27c0.2-5.3,1.2-10.5,1.8-15.8c0.4-3.8,3.3-5.3,6.2-4.9c1.3,0.2,2.9,3.7,2.9,5.7
		c0.5,18.6,0.9,37.3,1,55.9c0,9.8-0.4,19.6-1,29.4c-0.1,1.6-1.6,4.1-3,4.5c-2.7,0.9-5.4,0-5.9-3.5c-0.8-5.8-1.8-11.5-2-17.3
		C671.6,365.1,671.9,356.1,671.9,347.1z"/>
</g>
</svg>
